<svg width="16.000000" height="16.000000" viewBox="0 0 16 16" fill="none" xmlns="http://www.w3.org/2000/svg" xmlns:xlink="http://www.w3.org/1999/xlink">
	<desc>
			Created with Pixso.
	</desc>
	<defs>
		<clipPath id="clip6_1875">
			<rect width="16.000000" height="16.000000" fill="white" fill-opacity="0"/>
		</clipPath>
	</defs>
	<rect width="16.000000" height="16.000000" fill="#CECECE" fill-opacity="0"/>
	<g clip-path="url(#clip6_1875)">
		<path d="M15.5184 2.50024C15.269 2.61096 15.0126 2.70435 14.7505 2.78015C15.0607 2.4292 15.2973 2.01636 15.4417 1.5647C15.4741 1.46338 15.4405 1.35254 15.3572 1.28638C15.2741 1.22009 15.1586 1.21216 15.0671 1.26636C14.5106 1.59644 13.9102 1.83362 13.2806 1.97229C12.6465 1.35266 11.7852 1 10.8948 1C9.01526 1 7.48608 2.52905 7.48608 4.40857C7.48608 4.55652 7.49548 4.70374 7.51404 4.849C5.1817 4.64417 3.01343 3.4978 1.52441 1.67139C1.47137 1.6062 1.38959 1.57117 1.30591 1.57788C1.22217 1.58447 1.14691 1.63159 1.10461 1.70422C0.802612 2.22241 0.643005 2.81506 0.643005 3.41809C0.643005 4.23938 0.936218 5.01868 1.45422 5.62756C1.29669 5.573 1.14386 5.50488 0.997986 5.42395C0.919678 5.38025 0.824097 5.38098 0.746277 5.42554C0.668457 5.47021 0.619629 5.55225 0.617554 5.64197C0.617188 5.6571 0.617188 5.67212 0.617188 5.6875C0.617188 6.91345 1.27704 8.01721 2.28583 8.61877C2.19916 8.61011 2.11255 8.59753 2.02649 8.58105C1.93774 8.56421 1.84656 8.59521 1.78674 8.66296C1.72681 8.73047 1.70697 8.82471 1.73456 8.91077C2.10797 10.0765 3.06934 10.9341 4.23151 11.1954C3.26758 11.7992 2.16528 12.1155 1.00812 12.1155C0.766663 12.1155 0.523865 12.1013 0.286194 12.0731C0.168091 12.0591 0.0552368 12.1288 0.0150146 12.2411C-0.0252075 12.3534 0.0174561 12.4786 0.117859 12.5431C1.60443 13.4962 3.3233 14 5.08862 14C8.55902 14 10.73 12.3635 11.9401 10.9906C13.449 9.27881 14.3145 7.01294 14.3145 4.77417C14.3145 4.68066 14.313 4.58618 14.3101 4.49207C14.9055 4.04358 15.418 3.50073 15.8351 2.87683C15.8984 2.7821 15.8916 2.65686 15.8182 2.56958C15.7449 2.4823 15.6227 2.4541 15.5184 2.50024Z" fill="#FFFFFF" fill-opacity="1.000000" fill-rule="nonzero"/>
	</g>
</svg>
