<svg width="16.000000" height="16.000000" viewBox="0 0 16 16" fill="none" xmlns="http://www.w3.org/2000/svg" xmlns:xlink="http://www.w3.org/1999/xlink">
	<desc>
			Created with Pixso.
	</desc>
	<defs>
		<clipPath id="clip6_1882">
			<rect width="16.000000" height="16.000000" fill="white" fill-opacity="0"/>
		</clipPath>
	</defs>
	<rect width="16.000000" height="16.000000" fill="#CECECE" fill-opacity="0"/>
	<g clip-path="url(#clip6_1882)">
		<path d="M15.9151 12.027C15.8955 11.9805 15.8775 11.943 15.8612 11.9126C15.5836 11.3654 15.0529 10.693 14.2692 9.89539L14.2529 9.87744L14.2447 9.86853L14.2365 9.85962L14.2284 9.85962C13.8724 9.48755 13.6471 9.23901 13.554 9.11206C13.3809 8.8689 13.3434 8.62207 13.4365 8.37354C13.5034 8.18567 13.7532 7.78687 14.1859 7.17883C14.4145 6.85693 14.5941 6.59766 14.728 6.40271C15.6898 5.00427 16.1061 4.11011 15.9771 3.72021L15.9282 3.62903C15.8955 3.57361 15.809 3.52356 15.6702 3.47888C15.5314 3.43237 15.3534 3.42517 15.1362 3.45557L12.7376 3.47351C12.6984 3.45923 12.6429 3.45923 12.571 3.47888C12.4992 3.4967 12.4633 3.50562 12.4633 3.50562L12.4208 3.52893L12.3882 3.55579C12.3604 3.57361 12.3294 3.60583 12.2968 3.65234C12.2641 3.69702 12.2363 3.75073 12.2135 3.81152C11.9522 4.54822 11.655 5.23145 11.322 5.8645C11.1162 6.24182 10.9285 6.56909 10.7554 6.84631C10.5839 7.12341 10.4386 7.32727 10.3227 7.45789C10.2067 7.58838 10.1006 7.69397 10.0059 7.77258C9.91119 7.85132 9.83936 7.88525 9.78876 7.8728C9.7381 7.86023 9.6908 7.84766 9.64667 7.83704C9.5683 7.78149 9.50629 7.70825 9.45892 7.6134C9.41156 7.51868 9.37891 7.40063 9.36255 7.25757C9.34625 7.1145 9.33643 6.99109 9.33319 6.88733C9.3299 6.78369 9.33154 6.63696 9.33807 6.44922C9.3446 6.26147 9.34625 6.13269 9.34625 6.06653C9.34625 5.83582 9.35114 5.58374 9.35931 5.31372C9.36749 5.04358 9.37402 4.82898 9.38055 4.66992C9.38544 4.51245 9.38867 4.34436 9.38867 4.16736C9.38867 3.99036 9.37891 3.85266 9.35931 3.75244C9.33972 3.65234 9.3103 3.55396 9.27277 3.46094C9.23358 3.36621 9.17645 3.29285 9.10132 3.2428C9.02625 3.19092 8.93317 3.14978 8.82214 3.11938C8.5282 3.04602 8.15265 3.00671 7.69708 3.00134C6.66351 2.98889 6.00061 3.06213 5.70673 3.22131C5.59076 3.28748 5.48462 3.37866 5.38995 3.495C5.29034 3.62903 5.27563 3.70239 5.34747 3.71313C5.68054 3.76855 5.91736 3.89905 6.05609 4.10474L6.10675 4.21387C6.14594 4.29248 6.18512 4.43384 6.22266 4.63416C6.26184 4.83435 6.28638 5.05615 6.29779 5.29932C6.32556 5.74292 6.32556 6.12378 6.29779 6.44031C6.27002 6.75684 6.2439 7.00366 6.21942 7.17883C6.19489 7.35596 6.15735 7.49902 6.10675 7.60803C6.05609 7.71716 6.02344 7.78516 6.00714 7.80835C5.99078 7.83337 5.97614 7.84766 5.96631 7.85303C5.89447 7.88342 5.81934 7.89954 5.74097 7.89954C5.6626 7.89954 5.56952 7.85669 5.4585 7.77258C5.34747 7.68677 5.23157 7.57056 5.11237 7.42212C4.99316 7.27368 4.8576 7.06445 4.7074 6.79614C4.55719 6.52795 4.4021 6.21143 4.24042 5.84656L4.10651 5.58191C4.02325 5.41199 3.90894 5.16345 3.76526 4.83801C3.62158 4.51245 3.49261 4.19775 3.38159 3.8938C3.33746 3.76672 3.27051 3.66846 3.18237 3.60229L3.13989 3.57544C3.11212 3.55042 3.06805 3.52539 3.00604 3.49854C2.94562 3.47168 2.88031 3.45203 2.815 3.43945L0.532288 3.4574C0.298828 3.4574 0.140442 3.51465 0.0571289 3.63086L0.0244751 3.68628C0.00817871 3.71667 0 3.76501 0 3.83289C0 3.89905 0.0163574 3.98132 0.0505981 4.07971C0.383728 4.93811 0.746216 5.76428 1.13806 6.56189C1.52997 7.3595 1.86957 8.00146 2.15857 8.48792C2.44757 8.97437 2.74152 9.43396 3.04193 9.86499C3.34241 10.2977 3.53998 10.5731 3.63794 10.6947C3.7359 10.8163 3.81097 10.9075 3.86652 10.9684L4.0755 11.1865C4.20941 11.3331 4.40533 11.5066 4.66333 11.7104C4.92133 11.9143 5.20703 12.1146 5.52222 12.3131C5.83569 12.5099 6.20142 12.6726 6.6178 12.796C7.03418 12.9211 7.43909 12.9712 7.83423 12.9462L8.79272 12.9462C8.987 12.9283 9.13397 12.8604 9.23358 12.746L9.26624 12.6995C9.28912 12.6637 9.30872 12.6064 9.32831 12.5314C9.3479 12.4545 9.35767 12.3722 9.35767 12.281C9.35278 12.0199 9.37073 11.7838 9.41156 11.5746C9.45239 11.3654 9.49976 11.2062 9.55359 11.1007C9.60583 10.9934 9.66626 10.9039 9.73322 10.8324C9.80017 10.7592 9.84753 10.7144 9.87531 10.7001C9.90302 10.684 9.92426 10.675 9.9422 10.6678C10.0761 10.6196 10.2328 10.6661 10.4125 10.8092C10.5938 10.9523 10.7619 11.1293 10.9203 11.3385C11.0787 11.5477 11.2681 11.7838 11.4901 12.0449C11.7122 12.306 11.9065 12.501 12.0731 12.6296L12.2396 12.7388C12.3506 12.8121 12.496 12.8783 12.6723 12.9391C12.8503 12.9999 13.0054 13.016 13.1393 12.9838L15.2717 12.948C15.4824 12.948 15.6473 12.9104 15.7632 12.8335C15.8792 12.7567 15.9493 12.6744 15.9722 12.5831C15.9951 12.4919 15.9951 12.3883 15.9771 12.272C15.9543 12.1539 15.9347 12.0718 15.9151 12.027Z" fill="#FFFFFF" fill-opacity="1.000000" fill-rule="nonzero"/>
	</g>
</svg>
